<mxfile host="app.diagrams.net" modified="2024-04-02T07:13:23.452Z" agent="Mozilla/5.0 (X11; Ubuntu; Linux x86_64; rv:124.0) Gecko/20100101 Firefox/124.0" etag="DwNrv04cA3COW24NKEHx" version="24.0.5" type="github">
  <diagram name="Страница — 1" id="Wt9Dw4-7bhf395d1TXMc">
    <mxGraphModel dx="2490" dy="1497" grid="1" gridSize="10" guides="1" tooltips="1" connect="1" arrows="1" fold="1" page="1" pageScale="1" pageWidth="827" pageHeight="1169" math="0" shadow="0">
      <root>
        <mxCell id="0" />
        <mxCell id="1" parent="0" />
        <mxCell id="6Qiw5VS2r3cl6HaXIJJI-7" value="SERVER" style="rounded=0;whiteSpace=wrap;html=1;" vertex="1" parent="1">
          <mxGeometry x="81" y="561" width="679" height="175" as="geometry" />
        </mxCell>
        <mxCell id="6Qiw5VS2r3cl6HaXIJJI-16" value="" style="endArrow=classic;html=1;rounded=0;entryX=0.825;entryY=0.979;entryDx=0;entryDy=0;entryPerimeter=0;strokeColor=#0000FF;exitX=0.827;exitY=0.002;exitDx=0;exitDy=0;exitPerimeter=0;" edge="1" parent="1" source="6Qiw5VS2r3cl6HaXIJJI-4" target="6Qiw5VS2r3cl6HaXIJJI-2">
          <mxGeometry width="50" height="50" relative="1" as="geometry">
            <mxPoint x="180" y="400" as="sourcePoint" />
            <mxPoint x="290" y="350" as="targetPoint" />
          </mxGeometry>
        </mxCell>
        <mxCell id="6Qiw5VS2r3cl6HaXIJJI-17" value="Managmant&lt;br&gt;Freq:1M..6G&lt;br&gt;BW:5..24MHz" style="text;html=1;align=center;verticalAlign=middle;resizable=0;points=[];autosize=1;strokeColor=none;fillColor=none;fontColor=#0000FF;" vertex="1" parent="1">
          <mxGeometry x="171" y="349" width="100" height="60" as="geometry" />
        </mxCell>
        <mxCell id="6Qiw5VS2r3cl6HaXIJJI-1" value="" style="verticalLabelPosition=bottom;shadow=0;dashed=0;align=center;html=1;verticalAlign=top;shape=mxgraph.electrical.radio.aerial_-_antenna_1;" vertex="1" parent="1">
          <mxGeometry x="100" y="100" width="80" height="100" as="geometry" />
        </mxCell>
        <mxCell id="6Qiw5VS2r3cl6HaXIJJI-2" value="SDR" style="rounded=0;whiteSpace=wrap;html=1;" vertex="1" parent="1">
          <mxGeometry x="81" y="280" width="120" height="60" as="geometry" />
        </mxCell>
        <mxCell id="6Qiw5VS2r3cl6HaXIJJI-18" style="edgeStyle=orthogonalEdgeStyle;rounded=0;orthogonalLoop=1;jettySize=auto;html=1;exitX=0.5;exitY=1;exitDx=0;exitDy=0;" edge="1" parent="1" source="6Qiw5VS2r3cl6HaXIJJI-3">
          <mxGeometry relative="1" as="geometry">
            <mxPoint x="141" y="280" as="targetPoint" />
          </mxGeometry>
        </mxCell>
        <mxCell id="6Qiw5VS2r3cl6HaXIJJI-3" value="LNA" style="rounded=0;whiteSpace=wrap;html=1;" vertex="1" parent="1">
          <mxGeometry x="81" y="200" width="120" height="60" as="geometry" />
        </mxCell>
        <mxCell id="6Qiw5VS2r3cl6HaXIJJI-4" value="CPU&lt;div&gt;&lt;span lang=&quot;en&quot; class=&quot;HwtZe&quot;&gt;&lt;span class=&quot;jCAhz ChMk0b&quot;&gt;&lt;span class=&quot;ryNqvb&quot;&gt;Signal evaluation:&lt;br&gt;mV,mW,dB&lt;br&gt;MSP&lt;br&gt;&lt;/span&gt;&lt;/span&gt;&lt;/span&gt;&lt;/div&gt;" style="rounded=0;whiteSpace=wrap;html=1;" vertex="1" parent="1">
          <mxGeometry x="80" y="410" width="121" height="100" as="geometry" />
        </mxCell>
        <mxCell id="6Qiw5VS2r3cl6HaXIJJI-5" value="" style="shape=flexArrow;endArrow=classic;html=1;rounded=0;exitX=0.5;exitY=1;exitDx=0;exitDy=0;" edge="1" parent="1" source="6Qiw5VS2r3cl6HaXIJJI-2" target="6Qiw5VS2r3cl6HaXIJJI-4">
          <mxGeometry width="50" height="50" relative="1" as="geometry">
            <mxPoint x="20" y="390" as="sourcePoint" />
            <mxPoint x="70" y="340" as="targetPoint" />
          </mxGeometry>
        </mxCell>
        <mxCell id="6Qiw5VS2r3cl6HaXIJJI-6" value="Data&lt;br&gt;(IQ 8bit)&lt;br&gt;320Mb/sec" style="text;html=1;align=center;verticalAlign=middle;whiteSpace=wrap;rounded=0;" vertex="1" parent="1">
          <mxGeometry x="66" y="353" width="71" height="30" as="geometry" />
        </mxCell>
        <mxCell id="6Qiw5VS2r3cl6HaXIJJI-21" style="edgeStyle=orthogonalEdgeStyle;rounded=0;orthogonalLoop=1;jettySize=auto;html=1;exitX=0.5;exitY=1;exitDx=0;exitDy=0;entryX=0.088;entryY=0.004;entryDx=0;entryDy=0;entryPerimeter=0;" edge="1" parent="1" source="6Qiw5VS2r3cl6HaXIJJI-4" target="6Qiw5VS2r3cl6HaXIJJI-7">
          <mxGeometry relative="1" as="geometry" />
        </mxCell>
        <mxCell id="6Qiw5VS2r3cl6HaXIJJI-22" value="" style="endArrow=classic;html=1;rounded=0;entryX=0.825;entryY=0.979;entryDx=0;entryDy=0;entryPerimeter=0;strokeColor=#666666;exitX=0.827;exitY=0.002;exitDx=0;exitDy=0;exitPerimeter=0;fillColor=#f5f5f5;dashed=1;" edge="1" parent="1" source="6Qiw5VS2r3cl6HaXIJJI-28" target="6Qiw5VS2r3cl6HaXIJJI-25">
          <mxGeometry width="50" height="50" relative="1" as="geometry">
            <mxPoint x="474" y="390" as="sourcePoint" />
            <mxPoint x="584" y="340" as="targetPoint" />
          </mxGeometry>
        </mxCell>
        <mxCell id="6Qiw5VS2r3cl6HaXIJJI-23" value="Managmant&lt;br&gt;Freq:1M..6G&lt;br&gt;BW:5..24MHz" style="text;html=1;align=center;verticalAlign=middle;resizable=0;points=[];autosize=1;strokeColor=#666666;fillColor=#f5f5f5;fontColor=#333333;dashed=1;" vertex="1" parent="1">
          <mxGeometry x="465" y="339" width="100" height="60" as="geometry" />
        </mxCell>
        <mxCell id="6Qiw5VS2r3cl6HaXIJJI-24" value="" style="verticalLabelPosition=bottom;shadow=0;dashed=1;align=center;html=1;verticalAlign=top;shape=mxgraph.electrical.radio.aerial_-_antenna_1;fillColor=#f5f5f5;fontColor=#333333;strokeColor=#666666;" vertex="1" parent="1">
          <mxGeometry x="394" y="90" width="80" height="100" as="geometry" />
        </mxCell>
        <mxCell id="6Qiw5VS2r3cl6HaXIJJI-25" value="SDR" style="rounded=0;whiteSpace=wrap;html=1;fillColor=#f5f5f5;fontColor=#333333;strokeColor=#666666;dashed=1;" vertex="1" parent="1">
          <mxGeometry x="375" y="270" width="120" height="60" as="geometry" />
        </mxCell>
        <mxCell id="6Qiw5VS2r3cl6HaXIJJI-26" style="edgeStyle=orthogonalEdgeStyle;rounded=0;orthogonalLoop=1;jettySize=auto;html=1;exitX=0.5;exitY=1;exitDx=0;exitDy=0;fillColor=#f5f5f5;strokeColor=#666666;dashed=1;" edge="1" parent="1" source="6Qiw5VS2r3cl6HaXIJJI-27">
          <mxGeometry relative="1" as="geometry">
            <mxPoint x="435" y="270" as="targetPoint" />
          </mxGeometry>
        </mxCell>
        <mxCell id="6Qiw5VS2r3cl6HaXIJJI-27" value="LNA" style="rounded=0;whiteSpace=wrap;html=1;fillColor=#f5f5f5;fontColor=#333333;strokeColor=#666666;dashed=1;" vertex="1" parent="1">
          <mxGeometry x="375" y="190" width="120" height="60" as="geometry" />
        </mxCell>
        <mxCell id="6Qiw5VS2r3cl6HaXIJJI-28" value="CPU&lt;div&gt;&lt;span lang=&quot;en&quot; class=&quot;HwtZe&quot;&gt;&lt;span class=&quot;jCAhz ChMk0b&quot;&gt;&lt;span class=&quot;ryNqvb&quot;&gt;Signal evaluation:&lt;br&gt;mV,mW,dB&lt;br&gt;MSP&lt;br&gt;&lt;/span&gt;&lt;/span&gt;&lt;/span&gt;&lt;/div&gt;" style="rounded=0;whiteSpace=wrap;html=1;fillColor=#f5f5f5;fontColor=#333333;strokeColor=#666666;dashed=1;" vertex="1" parent="1">
          <mxGeometry x="374" y="400" width="121" height="100" as="geometry" />
        </mxCell>
        <mxCell id="6Qiw5VS2r3cl6HaXIJJI-29" value="" style="shape=flexArrow;endArrow=classic;html=1;rounded=0;exitX=0.5;exitY=1;exitDx=0;exitDy=0;fillColor=#f5f5f5;strokeColor=#666666;dashed=1;" edge="1" parent="1" source="6Qiw5VS2r3cl6HaXIJJI-25" target="6Qiw5VS2r3cl6HaXIJJI-28">
          <mxGeometry width="50" height="50" relative="1" as="geometry">
            <mxPoint x="314" y="380" as="sourcePoint" />
            <mxPoint x="364" y="330" as="targetPoint" />
          </mxGeometry>
        </mxCell>
        <mxCell id="6Qiw5VS2r3cl6HaXIJJI-30" value="Data&lt;br&gt;(IQ 8bit)&lt;br&gt;320Mb/sec" style="text;html=1;align=center;verticalAlign=middle;whiteSpace=wrap;rounded=0;fillColor=#f5f5f5;fontColor=#333333;strokeColor=#666666;dashed=1;" vertex="1" parent="1">
          <mxGeometry x="360" y="343" width="71" height="30" as="geometry" />
        </mxCell>
        <mxCell id="6Qiw5VS2r3cl6HaXIJJI-31" value="" style="endArrow=classic;html=1;rounded=0;entryX=0.825;entryY=0.979;entryDx=0;entryDy=0;entryPerimeter=0;strokeColor=#666666;exitX=0.827;exitY=0.002;exitDx=0;exitDy=0;exitPerimeter=0;fillColor=#f5f5f5;dashed=1;" edge="1" parent="1" source="6Qiw5VS2r3cl6HaXIJJI-37" target="6Qiw5VS2r3cl6HaXIJJI-34">
          <mxGeometry width="50" height="50" relative="1" as="geometry">
            <mxPoint x="679" y="395" as="sourcePoint" />
            <mxPoint x="789" y="345" as="targetPoint" />
          </mxGeometry>
        </mxCell>
        <mxCell id="6Qiw5VS2r3cl6HaXIJJI-32" value="Managmant&lt;br&gt;Freq:1M..6G&lt;br&gt;BW:5..24MHz" style="text;html=1;align=center;verticalAlign=middle;resizable=0;points=[];autosize=1;strokeColor=#666666;fillColor=#f5f5f5;fontColor=#333333;dashed=1;" vertex="1" parent="1">
          <mxGeometry x="670" y="344" width="100" height="60" as="geometry" />
        </mxCell>
        <mxCell id="6Qiw5VS2r3cl6HaXIJJI-33" value="" style="verticalLabelPosition=bottom;shadow=0;dashed=1;align=center;html=1;verticalAlign=top;shape=mxgraph.electrical.radio.aerial_-_antenna_1;fillColor=#f5f5f5;fontColor=#333333;strokeColor=#666666;" vertex="1" parent="1">
          <mxGeometry x="599" y="95" width="80" height="100" as="geometry" />
        </mxCell>
        <mxCell id="6Qiw5VS2r3cl6HaXIJJI-34" value="SDR" style="rounded=0;whiteSpace=wrap;html=1;fillColor=#f5f5f5;fontColor=#333333;strokeColor=#666666;dashed=1;" vertex="1" parent="1">
          <mxGeometry x="580" y="275" width="120" height="60" as="geometry" />
        </mxCell>
        <mxCell id="6Qiw5VS2r3cl6HaXIJJI-35" style="edgeStyle=orthogonalEdgeStyle;rounded=0;orthogonalLoop=1;jettySize=auto;html=1;exitX=0.5;exitY=1;exitDx=0;exitDy=0;fillColor=#f5f5f5;strokeColor=#666666;dashed=1;" edge="1" parent="1" source="6Qiw5VS2r3cl6HaXIJJI-36">
          <mxGeometry relative="1" as="geometry">
            <mxPoint x="640" y="275" as="targetPoint" />
          </mxGeometry>
        </mxCell>
        <mxCell id="6Qiw5VS2r3cl6HaXIJJI-36" value="LNA" style="rounded=0;whiteSpace=wrap;html=1;fillColor=#f5f5f5;fontColor=#333333;strokeColor=#666666;dashed=1;" vertex="1" parent="1">
          <mxGeometry x="580" y="195" width="120" height="60" as="geometry" />
        </mxCell>
        <mxCell id="6Qiw5VS2r3cl6HaXIJJI-37" value="CPU&lt;div&gt;&lt;span lang=&quot;en&quot; class=&quot;HwtZe&quot;&gt;&lt;span class=&quot;jCAhz ChMk0b&quot;&gt;&lt;span class=&quot;ryNqvb&quot;&gt;Signal evaluation:&lt;br&gt;mV,mW,dB&lt;br&gt;MSP&lt;br&gt;&lt;/span&gt;&lt;/span&gt;&lt;/span&gt;&lt;/div&gt;" style="rounded=0;whiteSpace=wrap;html=1;fillColor=#f5f5f5;fontColor=#333333;strokeColor=#666666;dashed=1;" vertex="1" parent="1">
          <mxGeometry x="579" y="405" width="121" height="100" as="geometry" />
        </mxCell>
        <mxCell id="6Qiw5VS2r3cl6HaXIJJI-38" value="" style="shape=flexArrow;endArrow=classic;html=1;rounded=0;exitX=0.5;exitY=1;exitDx=0;exitDy=0;fillColor=#f5f5f5;strokeColor=#666666;dashed=1;" edge="1" parent="1" source="6Qiw5VS2r3cl6HaXIJJI-34" target="6Qiw5VS2r3cl6HaXIJJI-37">
          <mxGeometry width="50" height="50" relative="1" as="geometry">
            <mxPoint x="519" y="385" as="sourcePoint" />
            <mxPoint x="569" y="335" as="targetPoint" />
          </mxGeometry>
        </mxCell>
        <mxCell id="6Qiw5VS2r3cl6HaXIJJI-39" value="Data&lt;br&gt;(IQ 8bit)&lt;br&gt;320Mb/sec" style="text;html=1;align=center;verticalAlign=middle;whiteSpace=wrap;rounded=0;fillColor=#f5f5f5;fontColor=#333333;strokeColor=#666666;dashed=1;" vertex="1" parent="1">
          <mxGeometry x="565" y="348" width="71" height="30" as="geometry" />
        </mxCell>
        <mxCell id="6Qiw5VS2r3cl6HaXIJJI-60" value="" style="rounded=0;whiteSpace=wrap;html=1;gradientColor=#CCCCCC;gradientDirection=east;" vertex="1" parent="1">
          <mxGeometry x="1048" y="170" width="150" height="20" as="geometry" />
        </mxCell>
        <mxCell id="6Qiw5VS2r3cl6HaXIJJI-61" value="" style="rounded=0;whiteSpace=wrap;html=1;gradientColor=#CCCCCC;gradientDirection=east;" vertex="1" parent="1">
          <mxGeometry x="1258" y="170" width="200" height="20" as="geometry" />
        </mxCell>
        <mxCell id="6Qiw5VS2r3cl6HaXIJJI-62" value="" style="rounded=0;whiteSpace=wrap;html=1;gradientColor=#CCCCCC;gradientDirection=east;" vertex="1" parent="1">
          <mxGeometry x="1524" y="170" width="90" height="20" as="geometry" />
        </mxCell>
        <mxCell id="6Qiw5VS2r3cl6HaXIJJI-63" value="" style="rounded=0;whiteSpace=wrap;html=1;gradientColor=#CCCCCC;gradientDirection=radial;fillColor=#000000;" vertex="1" parent="1">
          <mxGeometry x="1108" y="170" width="30" height="20" as="geometry" />
        </mxCell>
        <mxCell id="6Qiw5VS2r3cl6HaXIJJI-64" value="" style="rounded=0;whiteSpace=wrap;html=1;gradientColor=#CCCCCC;gradientDirection=radial;fillColor=#000000;" vertex="1" parent="1">
          <mxGeometry x="1289" y="170" width="30" height="20" as="geometry" />
        </mxCell>
        <mxCell id="6Qiw5VS2r3cl6HaXIJJI-65" value="" style="rounded=0;whiteSpace=wrap;html=1;gradientColor=#CCCCCC;gradientDirection=radial;fillColor=#000000;" vertex="1" parent="1">
          <mxGeometry x="1388" y="170" width="30" height="20" as="geometry" />
        </mxCell>
        <mxCell id="6Qiw5VS2r3cl6HaXIJJI-66" value="" style="rounded=0;whiteSpace=wrap;html=1;gradientColor=#CCCCCC;gradientDirection=radial;fillColor=#000000;" vertex="1" parent="1">
          <mxGeometry x="1554" y="170" width="30" height="20" as="geometry" />
        </mxCell>
        <mxCell id="6Qiw5VS2r3cl6HaXIJJI-67" value="" style="endArrow=classic;startArrow=classic;html=1;rounded=0;" edge="1" parent="1">
          <mxGeometry width="50" height="50" relative="1" as="geometry">
            <mxPoint x="1080.5" y="179.75" as="sourcePoint" />
            <mxPoint x="1165.5" y="180" as="targetPoint" />
          </mxGeometry>
        </mxCell>
        <mxCell id="6Qiw5VS2r3cl6HaXIJJI-68" value="" style="endArrow=classic;startArrow=classic;html=1;rounded=0;" edge="1" parent="1">
          <mxGeometry width="50" height="50" relative="1" as="geometry">
            <mxPoint x="1261.5" y="179.37" as="sourcePoint" />
            <mxPoint x="1346.5" y="179.62" as="targetPoint" />
          </mxGeometry>
        </mxCell>
        <mxCell id="6Qiw5VS2r3cl6HaXIJJI-69" value="" style="endArrow=classic;startArrow=classic;html=1;rounded=0;" edge="1" parent="1">
          <mxGeometry width="50" height="50" relative="1" as="geometry">
            <mxPoint x="1359.5" y="179.37" as="sourcePoint" />
            <mxPoint x="1444.5" y="179.62" as="targetPoint" />
          </mxGeometry>
        </mxCell>
        <mxCell id="6Qiw5VS2r3cl6HaXIJJI-70" value="" style="endArrow=classic;startArrow=classic;html=1;rounded=0;" edge="1" parent="1">
          <mxGeometry width="50" height="50" relative="1" as="geometry">
            <mxPoint x="1526.5" y="179.29000000000002" as="sourcePoint" />
            <mxPoint x="1611.5" y="179.54000000000002" as="targetPoint" />
          </mxGeometry>
        </mxCell>
        <mxCell id="6Qiw5VS2r3cl6HaXIJJI-72" value="&lt;h1 style=&quot;margin-top: 0px;&quot;&gt;Спектр&lt;/h1&gt;&lt;p&gt;Разбиваем на интересующие нас диапазоны и сканируем их с помощью Управляемых Сканеров (&lt;b&gt;УС&lt;/b&gt;)&lt;br&gt;&lt;/p&gt;" style="text;html=1;whiteSpace=wrap;overflow=hidden;rounded=0;" vertex="1" parent="1">
          <mxGeometry x="840" y="112" width="180" height="120" as="geometry" />
        </mxCell>
        <mxCell id="6Qiw5VS2r3cl6HaXIJJI-45" value="" style="rounded=0;whiteSpace=wrap;html=1;gradientColor=#8A8A8A;gradientDirection=east;" vertex="1" parent="1">
          <mxGeometry x="1027" y="96" width="620" height="40" as="geometry" />
        </mxCell>
        <mxCell id="6Qiw5VS2r3cl6HaXIJJI-46" value="1GHz" style="text;html=1;align=center;verticalAlign=middle;resizable=0;points=[];autosize=1;strokeColor=none;fillColor=none;" vertex="1" parent="1">
          <mxGeometry x="1081" y="57" width="50" height="30" as="geometry" />
        </mxCell>
        <mxCell id="6Qiw5VS2r3cl6HaXIJJI-47" value="2GHz" style="text;html=1;align=center;verticalAlign=middle;resizable=0;points=[];autosize=1;strokeColor=none;fillColor=none;" vertex="1" parent="1">
          <mxGeometry x="1181" y="56" width="50" height="30" as="geometry" />
        </mxCell>
        <mxCell id="6Qiw5VS2r3cl6HaXIJJI-48" value="3GHz" style="text;html=1;align=center;verticalAlign=middle;resizable=0;points=[];autosize=1;strokeColor=none;fillColor=none;" vertex="1" parent="1">
          <mxGeometry x="1281" y="56" width="50" height="30" as="geometry" />
        </mxCell>
        <mxCell id="6Qiw5VS2r3cl6HaXIJJI-49" value="4GHz" style="text;html=1;align=center;verticalAlign=middle;resizable=0;points=[];autosize=1;strokeColor=none;fillColor=none;" vertex="1" parent="1">
          <mxGeometry x="1391" y="56" width="50" height="30" as="geometry" />
        </mxCell>
        <mxCell id="6Qiw5VS2r3cl6HaXIJJI-50" value="5GHz" style="text;html=1;align=center;verticalAlign=middle;resizable=0;points=[];autosize=1;strokeColor=none;fillColor=none;" vertex="1" parent="1">
          <mxGeometry x="1501" y="56" width="50" height="30" as="geometry" />
        </mxCell>
        <mxCell id="6Qiw5VS2r3cl6HaXIJJI-51" value="6GHz" style="text;html=1;align=center;verticalAlign=middle;resizable=0;points=[];autosize=1;strokeColor=none;fillColor=none;" vertex="1" parent="1">
          <mxGeometry x="1601" y="56" width="50" height="30" as="geometry" />
        </mxCell>
        <mxCell id="6Qiw5VS2r3cl6HaXIJJI-53" value="" style="endArrow=classic;html=1;rounded=0;entryX=0.006;entryY=-0.006;entryDx=0;entryDy=0;entryPerimeter=0;" edge="1" parent="1" target="6Qiw5VS2r3cl6HaXIJJI-45">
          <mxGeometry width="50" height="50" relative="1" as="geometry">
            <mxPoint x="1041" y="50" as="sourcePoint" />
            <mxPoint x="1051" y="170" as="targetPoint" />
          </mxGeometry>
        </mxCell>
        <mxCell id="6Qiw5VS2r3cl6HaXIJJI-54" value="1MHz" style="text;html=1;align=center;verticalAlign=middle;resizable=0;points=[];autosize=1;strokeColor=none;fillColor=none;" vertex="1" parent="1">
          <mxGeometry x="1017" y="29" width="50" height="30" as="geometry" />
        </mxCell>
        <mxCell id="6Qiw5VS2r3cl6HaXIJJI-55" value="" style="endArrow=none;html=1;rounded=0;" edge="1" parent="1">
          <mxGeometry width="50" height="50" relative="1" as="geometry">
            <mxPoint x="1032" y="150" as="sourcePoint" />
            <mxPoint x="1032" y="80" as="targetPoint" />
          </mxGeometry>
        </mxCell>
        <mxCell id="6Qiw5VS2r3cl6HaXIJJI-56" value="" style="endArrow=none;html=1;rounded=0;" edge="1" parent="1">
          <mxGeometry width="50" height="50" relative="1" as="geometry">
            <mxPoint x="1625.75" y="151" as="sourcePoint" />
            <mxPoint x="1625.75" y="81" as="targetPoint" />
          </mxGeometry>
        </mxCell>
        <mxCell id="6Qiw5VS2r3cl6HaXIJJI-57" value="" style="rounded=0;whiteSpace=wrap;html=1;" vertex="1" parent="1">
          <mxGeometry x="1033" y="110" width="608" height="10" as="geometry" />
        </mxCell>
        <mxCell id="6Qiw5VS2r3cl6HaXIJJI-79" style="edgeStyle=orthogonalEdgeStyle;rounded=0;orthogonalLoop=1;jettySize=auto;html=1;exitX=0.5;exitY=0;exitDx=0;exitDy=0;entryX=0.5;entryY=1;entryDx=0;entryDy=0;" edge="1" parent="1" source="6Qiw5VS2r3cl6HaXIJJI-75" target="6Qiw5VS2r3cl6HaXIJJI-63">
          <mxGeometry relative="1" as="geometry" />
        </mxCell>
        <mxCell id="6Qiw5VS2r3cl6HaXIJJI-75" value="УС1" style="whiteSpace=wrap;html=1;aspect=fixed;shadow=1;" vertex="1" parent="1">
          <mxGeometry x="1083" y="240" width="80" height="80" as="geometry" />
        </mxCell>
        <mxCell id="6Qiw5VS2r3cl6HaXIJJI-80" style="edgeStyle=orthogonalEdgeStyle;rounded=0;orthogonalLoop=1;jettySize=auto;html=1;exitX=0.5;exitY=0;exitDx=0;exitDy=0;entryX=0.5;entryY=1;entryDx=0;entryDy=0;" edge="1" parent="1" source="6Qiw5VS2r3cl6HaXIJJI-76" target="6Qiw5VS2r3cl6HaXIJJI-64">
          <mxGeometry relative="1" as="geometry" />
        </mxCell>
        <mxCell id="6Qiw5VS2r3cl6HaXIJJI-76" value="УС2" style="whiteSpace=wrap;html=1;aspect=fixed;shadow=1;" vertex="1" parent="1">
          <mxGeometry x="1264" y="240" width="80" height="80" as="geometry" />
        </mxCell>
        <mxCell id="6Qiw5VS2r3cl6HaXIJJI-81" style="edgeStyle=orthogonalEdgeStyle;rounded=0;orthogonalLoop=1;jettySize=auto;html=1;exitX=0.5;exitY=0;exitDx=0;exitDy=0;entryX=0.5;entryY=1;entryDx=0;entryDy=0;" edge="1" parent="1" source="6Qiw5VS2r3cl6HaXIJJI-77" target="6Qiw5VS2r3cl6HaXIJJI-65">
          <mxGeometry relative="1" as="geometry" />
        </mxCell>
        <mxCell id="6Qiw5VS2r3cl6HaXIJJI-77" value="УС3" style="whiteSpace=wrap;html=1;aspect=fixed;shadow=1;" vertex="1" parent="1">
          <mxGeometry x="1363" y="240" width="80" height="80" as="geometry" />
        </mxCell>
        <mxCell id="6Qiw5VS2r3cl6HaXIJJI-82" style="edgeStyle=orthogonalEdgeStyle;rounded=0;orthogonalLoop=1;jettySize=auto;html=1;exitX=0.5;exitY=0;exitDx=0;exitDy=0;entryX=0.5;entryY=1;entryDx=0;entryDy=0;" edge="1" parent="1" source="6Qiw5VS2r3cl6HaXIJJI-78" target="6Qiw5VS2r3cl6HaXIJJI-66">
          <mxGeometry relative="1" as="geometry" />
        </mxCell>
        <mxCell id="6Qiw5VS2r3cl6HaXIJJI-78" value="УС4" style="whiteSpace=wrap;html=1;aspect=fixed;shadow=1;" vertex="1" parent="1">
          <mxGeometry x="1529" y="240" width="80" height="80" as="geometry" />
        </mxCell>
        <mxCell id="6Qiw5VS2r3cl6HaXIJJI-83" value="коммутатор" style="rounded=0;whiteSpace=wrap;html=1;" vertex="1" parent="1">
          <mxGeometry x="1080" y="360" width="530" height="60" as="geometry" />
        </mxCell>
        <mxCell id="6Qiw5VS2r3cl6HaXIJJI-85" value="&lt;div&gt;Все Управляеме сканеры через&amp;nbsp;&lt;/div&gt;&lt;div&gt;коммутатор подключены к серверу&lt;/div&gt;" style="text;html=1;align=center;verticalAlign=middle;resizable=0;points=[];autosize=1;strokeColor=none;fillColor=none;strokeWidth=3;" vertex="1" parent="1">
          <mxGeometry x="837" y="320" width="220" height="40" as="geometry" />
        </mxCell>
        <mxCell id="6Qiw5VS2r3cl6HaXIJJI-86" style="edgeStyle=orthogonalEdgeStyle;rounded=0;orthogonalLoop=1;jettySize=auto;html=1;exitX=0.5;exitY=1;exitDx=0;exitDy=0;entryX=0.083;entryY=-0.017;entryDx=0;entryDy=0;entryPerimeter=0;strokeWidth=3;" edge="1" parent="1" source="6Qiw5VS2r3cl6HaXIJJI-75" target="6Qiw5VS2r3cl6HaXIJJI-83">
          <mxGeometry relative="1" as="geometry" />
        </mxCell>
        <mxCell id="6Qiw5VS2r3cl6HaXIJJI-87" style="edgeStyle=orthogonalEdgeStyle;rounded=0;orthogonalLoop=1;jettySize=auto;html=1;exitX=0.5;exitY=1;exitDx=0;exitDy=0;entryX=0.425;entryY=-0.017;entryDx=0;entryDy=0;entryPerimeter=0;strokeWidth=3;" edge="1" parent="1" source="6Qiw5VS2r3cl6HaXIJJI-76" target="6Qiw5VS2r3cl6HaXIJJI-83">
          <mxGeometry relative="1" as="geometry" />
        </mxCell>
        <mxCell id="6Qiw5VS2r3cl6HaXIJJI-88" style="edgeStyle=orthogonalEdgeStyle;rounded=0;orthogonalLoop=1;jettySize=auto;html=1;exitX=0.5;exitY=1;exitDx=0;exitDy=0;entryX=0.611;entryY=-0.017;entryDx=0;entryDy=0;entryPerimeter=0;strokeWidth=3;" edge="1" parent="1" source="6Qiw5VS2r3cl6HaXIJJI-77" target="6Qiw5VS2r3cl6HaXIJJI-83">
          <mxGeometry relative="1" as="geometry" />
        </mxCell>
        <mxCell id="6Qiw5VS2r3cl6HaXIJJI-89" style="edgeStyle=orthogonalEdgeStyle;rounded=0;orthogonalLoop=1;jettySize=auto;html=1;exitX=0.5;exitY=1;exitDx=0;exitDy=0;entryX=0.922;entryY=-0.017;entryDx=0;entryDy=0;entryPerimeter=0;strokeWidth=3;" edge="1" parent="1" source="6Qiw5VS2r3cl6HaXIJJI-78" target="6Qiw5VS2r3cl6HaXIJJI-83">
          <mxGeometry relative="1" as="geometry" />
        </mxCell>
        <mxCell id="6Qiw5VS2r3cl6HaXIJJI-91" style="edgeStyle=orthogonalEdgeStyle;rounded=0;orthogonalLoop=1;jettySize=auto;html=1;exitX=0.5;exitY=1;exitDx=0;exitDy=0;entryX=0.497;entryY=0.052;entryDx=0;entryDy=0;entryPerimeter=0;" edge="1" parent="1" source="6Qiw5VS2r3cl6HaXIJJI-83" target="6Qiw5VS2r3cl6HaXIJJI-90">
          <mxGeometry relative="1" as="geometry" />
        </mxCell>
        <mxCell id="6Qiw5VS2r3cl6HaXIJJI-92" value="" style="group" vertex="1" connectable="0" parent="1">
          <mxGeometry x="1210" y="440" width="273" height="230" as="geometry" />
        </mxCell>
        <mxCell id="6Qiw5VS2r3cl6HaXIJJI-84" value="" style="rounded=0;whiteSpace=wrap;html=1;shadow=1;" vertex="1" parent="6Qiw5VS2r3cl6HaXIJJI-92">
          <mxGeometry y="11.5" width="273" height="218.49999999999997" as="geometry" />
        </mxCell>
        <mxCell id="6Qiw5VS2r3cl6HaXIJJI-90" value="&lt;h1 style=&quot;margin-top: 0px;&quot;&gt;Система управляющая сканерами&lt;br&gt;&lt;/h1&gt;&lt;p&gt;управляющее ПО . &lt;br&gt;-Задает диапазон для каждого сканера&lt;br&gt;-от каждого принимает оцененные данные&lt;br&gt;-суммирует информацию&lt;br&gt;-Отображает  процесс и сохраняетданные&lt;br&gt;-реагирует заданным образом&lt;br&gt;&lt;br&gt;&lt;/p&gt;" style="text;html=1;whiteSpace=wrap;overflow=hidden;rounded=0;" vertex="1" parent="6Qiw5VS2r3cl6HaXIJJI-92">
          <mxGeometry x="11.5" y="16" width="249" height="223.1" as="geometry" />
        </mxCell>
        <mxCell id="6Qiw5VS2r3cl6HaXIJJI-93" value="" style="image;html=1;image=img/lib/clip_art/computers/Monitor_128x128.png" vertex="1" parent="1">
          <mxGeometry x="1061" y="780" width="179" height="110" as="geometry" />
        </mxCell>
        <mxCell id="6Qiw5VS2r3cl6HaXIJJI-94" value="" style="verticalLabelPosition=bottom;html=1;verticalAlign=top;align=center;strokeColor=none;fillColor=#00BEF2;shape=mxgraph.azure.database;" vertex="1" parent="1">
          <mxGeometry x="1470.5" y="780" width="100" height="100" as="geometry" />
        </mxCell>
        <mxCell id="6Qiw5VS2r3cl6HaXIJJI-96" value="" style="verticalLabelPosition=bottom;shadow=0;dashed=0;align=center;html=1;verticalAlign=top;shape=mxgraph.electrical.radio.aerial_-_antenna_1;" vertex="1" parent="1">
          <mxGeometry x="1894" y="96" width="80" height="100" as="geometry" />
        </mxCell>
        <mxCell id="6Qiw5VS2r3cl6HaXIJJI-97" value="SDR" style="rounded=0;whiteSpace=wrap;html=1;" vertex="1" parent="1">
          <mxGeometry x="1875" y="276" width="120" height="60" as="geometry" />
        </mxCell>
        <mxCell id="6Qiw5VS2r3cl6HaXIJJI-98" style="edgeStyle=orthogonalEdgeStyle;rounded=0;orthogonalLoop=1;jettySize=auto;html=1;exitX=0.5;exitY=1;exitDx=0;exitDy=0;" edge="1" parent="1" source="6Qiw5VS2r3cl6HaXIJJI-99">
          <mxGeometry relative="1" as="geometry">
            <mxPoint x="1935" y="276" as="targetPoint" />
          </mxGeometry>
        </mxCell>
        <mxCell id="6Qiw5VS2r3cl6HaXIJJI-99" value="LNA" style="rounded=0;whiteSpace=wrap;html=1;" vertex="1" parent="1">
          <mxGeometry x="1875" y="196" width="120" height="60" as="geometry" />
        </mxCell>
        <mxCell id="6Qiw5VS2r3cl6HaXIJJI-100" value="CPU&lt;div&gt;&lt;span lang=&quot;en&quot; class=&quot;HwtZe&quot;&gt;&lt;span class=&quot;jCAhz ChMk0b&quot;&gt;&lt;span class=&quot;ryNqvb&quot;&gt;Signal evaluation:&lt;br&gt;mV,mW,dB&lt;br&gt;MSP&lt;br&gt;&lt;/span&gt;&lt;/span&gt;&lt;/span&gt;&lt;/div&gt;" style="rounded=0;whiteSpace=wrap;html=1;" vertex="1" parent="1">
          <mxGeometry x="1874" y="406" width="121" height="100" as="geometry" />
        </mxCell>
        <mxCell id="6Qiw5VS2r3cl6HaXIJJI-101" value="" style="shape=flexArrow;endArrow=classic;html=1;rounded=0;exitX=0.5;exitY=1;exitDx=0;exitDy=0;" edge="1" parent="1" source="6Qiw5VS2r3cl6HaXIJJI-97" target="6Qiw5VS2r3cl6HaXIJJI-100">
          <mxGeometry width="50" height="50" relative="1" as="geometry">
            <mxPoint x="1814" y="386" as="sourcePoint" />
            <mxPoint x="1864" y="336" as="targetPoint" />
          </mxGeometry>
        </mxCell>
        <mxCell id="6Qiw5VS2r3cl6HaXIJJI-102" value="Data&lt;br&gt;(IQ 8bit)&lt;br&gt;320Mb/sec" style="text;html=1;align=center;verticalAlign=middle;whiteSpace=wrap;rounded=0;" vertex="1" parent="1">
          <mxGeometry x="1860" y="349" width="71" height="30" as="geometry" />
        </mxCell>
        <mxCell id="6Qiw5VS2r3cl6HaXIJJI-103" style="edgeStyle=orthogonalEdgeStyle;rounded=0;orthogonalLoop=1;jettySize=auto;html=1;exitX=0.5;exitY=1;exitDx=0;exitDy=0;" edge="1" parent="1" source="6Qiw5VS2r3cl6HaXIJJI-100">
          <mxGeometry relative="1" as="geometry">
            <mxPoint x="1934" y="560" as="targetPoint" />
          </mxGeometry>
        </mxCell>
        <mxCell id="6Qiw5VS2r3cl6HaXIJJI-104" value="" style="shape=flexArrow;endArrow=classic;startArrow=classic;html=1;rounded=0;entryX=0.083;entryY=1.026;entryDx=0;entryDy=0;entryPerimeter=0;" edge="1" parent="1" target="6Qiw5VS2r3cl6HaXIJJI-90">
          <mxGeometry width="100" height="100" relative="1" as="geometry">
            <mxPoint x="1200" y="770" as="sourcePoint" />
            <mxPoint x="1310" y="690" as="targetPoint" />
          </mxGeometry>
        </mxCell>
        <mxCell id="6Qiw5VS2r3cl6HaXIJJI-105" value="" style="shape=flexArrow;endArrow=classic;startArrow=classic;html=1;rounded=0;entryX=0.241;entryY=-0.051;entryDx=0;entryDy=0;entryPerimeter=0;exitX=0.938;exitY=1.021;exitDx=0;exitDy=0;exitPerimeter=0;" edge="1" parent="1" source="6Qiw5VS2r3cl6HaXIJJI-90" target="6Qiw5VS2r3cl6HaXIJJI-94">
          <mxGeometry width="100" height="100" relative="1" as="geometry">
            <mxPoint x="1210" y="780" as="sourcePoint" />
            <mxPoint x="1252" y="695" as="targetPoint" />
          </mxGeometry>
        </mxCell>
        <mxCell id="6Qiw5VS2r3cl6HaXIJJI-106" value="DATA&lt;br&gt;(UDP)&lt;br&gt;50Kb/Sec" style="text;html=1;align=center;verticalAlign=middle;resizable=0;points=[];autosize=1;strokeColor=none;fillColor=none;" vertex="1" parent="1">
          <mxGeometry x="1850" y="505" width="80" height="60" as="geometry" />
        </mxCell>
        <mxCell id="6Qiw5VS2r3cl6HaXIJJI-107" value="Ethernet" style="text;html=1;align=center;verticalAlign=middle;resizable=0;points=[];autosize=1;strokeColor=none;fillColor=none;fontColor=#000099;" vertex="1" parent="1">
          <mxGeometry x="1930" y="516" width="70" height="30" as="geometry" />
        </mxCell>
        <mxCell id="6Qiw5VS2r3cl6HaXIJJI-108" value="USB3" style="text;html=1;align=center;verticalAlign=middle;resizable=0;points=[];autosize=1;strokeColor=none;fillColor=none;fontColor=#000099;" vertex="1" parent="1">
          <mxGeometry x="1942" y="350" width="50" height="30" as="geometry" />
        </mxCell>
      </root>
    </mxGraphModel>
  </diagram>
</mxfile>
